<svg width="160" height="160" viewBox="0 0 160 160" fill="none" xmlns="http://www.w3.org/2000/svg">
<path d="M66.4464 158.923C65.2152 157.689 65.2152 154.878 66.4464 153.644C67.1095 152.98 71.2356 152.684 79.8562 152.684C92.9215 152.684 94.2239 153.011 94.2239 156.284C94.2239 159.557 92.9215 159.883 79.8562 159.883C71.2356 159.883 67.1095 159.588 66.4464 158.923ZM36.4111 143.429C34.6988 141.713 34.8345 139.316 36.7007 138.315C38.3672 137.422 119.414 137.095 121.697 137.973C123.188 138.547 123.389 142.336 122.001 143.726C121.281 144.448 110.715 144.686 79.3545 144.686C42.5196 144.686 37.5194 144.54 36.4111 143.429ZM51.4318 129.147C51.1914 128.52 51.1128 127.17 51.2573 126.148C51.5188 124.299 51.5908 124.288 66.6859 123.795C75.0271 123.522 95.5352 123.252 112.259 123.195C140.779 123.097 142.749 123.181 143.988 124.553C145.548 126.28 145.679 127.999 144.351 129.329C143.628 130.053 132.16 130.289 97.6312 130.289C58.7264 130.289 51.8035 130.118 51.4318 129.147ZM8.01783 115.892C7.4385 114.807 7.42103 113.81 7.96357 112.794C8.7167 111.384 10.6338 111.262 40.6066 110.706C58.1201 110.381 81.484 110.381 92.5264 110.706L112.603 111.297L113.081 113.205C114.191 117.637 115.979 117.492 60.2306 117.492C9.68913 117.492 8.85861 117.466 8.01783 115.892ZM57.6662 105.334C56.4349 104.1 56.4349 101.289 57.6662 100.055C58.3862 99.3337 68.7751 99.0954 99.5149 99.0954C135.624 99.0954 140.552 99.2424 141.66 100.352C142.35 101.044 142.914 102.098 142.914 102.695C142.914 103.292 142.35 104.346 141.66 105.037C140.552 106.147 135.624 106.294 99.5149 106.294C68.7751 106.294 58.3862 106.056 57.6662 105.334ZM4.43627 93.7231C0.0902545 93.2512 -1.2737 90.9239 1.2901 88.3549C2.41313 87.2295 10.637 87.0979 79.8562 87.0979C149.075 87.0979 157.299 87.2295 158.422 88.3549C159.853 89.7879 159.982 90.9744 158.896 92.6968C158.233 93.7484 148.846 93.9072 82.8789 93.9826C41.4858 94.0298 6.18662 93.913 4.43627 93.7231ZM0.040485 79.2996C0.0488741 73.9496 2.31113 61.2441 4.27726 55.5045C8.40961 43.4413 13.928 34.1882 22.2822 25.3142C39.0411 7.51264 61.1174 -1.29568 85.3409 0.154129C95.3603 0.753805 103.928 3.08105 113.78 7.87899C139.786 20.5442 156.751 45.527 159.311 74.9265L159.883 81.4991H136.315H112.747L111.809 76.1043C109.946 65.3865 103.657 57.2258 93.5691 52.4367C88.6365 50.0951 87.6101 49.9057 79.8562 49.9057C72.1024 49.9057 71.0761 50.0951 66.1434 52.4367C55.8813 57.3084 49.6644 65.5007 47.8431 76.552L46.8959 82.2989H23.4658H0.0357806L0.040485 79.2996Z" fill="#FFFFFF"/>
</svg>
