<svg width="342" height="329" viewBox="0 0 342 329" fill="none" xmlns="http://www.w3.org/2000/svg">
<path d="M141.624 326.608C138.684 323.509 138.7 319.559 141.665 316.639L143.803 314.534L171.007 314.737L198.211 314.94L199.955 316.937C202.715 320.097 202.1 324.72 198.542 327.557C197.144 328.672 194.509 328.789 170.361 328.803L143.721 328.818L141.624 326.608ZM79.797 296.485C76.7994 295.193 75.1855 292.782 75.1855 289.594C75.1855 285.249 77.0225 283.781 83.2252 283.17C86.1593 282.881 126.389 282.624 172.625 282.6C262.669 282.553 260.445 282.468 262.369 286.008C263.844 288.723 263.301 292.331 261.04 294.822L258.931 297.146L170.492 297.302C97.0286 297.432 81.6712 297.295 79.797 296.485ZM110.665 266.131C108.321 263.824 107.857 261.384 109.133 258.082C110.759 253.869 105.274 254.087 209.901 254.087H305.65L307.895 256.152C309.718 257.827 310.141 258.78 310.141 261.204C310.141 263.628 309.718 264.581 307.895 266.256L305.65 268.321H209.27H112.89L110.665 266.131ZM37.593 241.987C28.2489 241.791 20.0596 241.366 19.3943 241.043C18.1712 240.447 15.9046 236.438 15.9046 234.87C15.9046 232.983 18.2509 229.325 19.9498 228.563C21.2745 227.969 50.3719 227.753 129.115 227.753C244.838 227.753 239.435 227.583 241.44 231.272C242.914 233.984 242.328 237.686 240.072 239.907L237.958 241.987L171.934 242.097C135.621 242.157 94.3614 242.237 80.2463 242.275C66.1308 242.312 46.9371 242.183 37.593 241.987ZM128.322 218.862C127.924 218.731 126.694 218.428 125.588 218.187C123.239 217.676 120.737 214.085 120.733 211.216C120.732 210.069 121.597 208.316 122.84 206.946L124.95 204.621L211.581 204.423C259.228 204.315 298.972 204.408 299.9 204.63C304.371 205.702 306.479 211.466 303.848 215.42C301.222 219.366 304.824 219.217 213.471 219.156C167.036 219.126 128.719 218.993 128.322 218.862ZM3.91857 192.775C2.0657 191.89 0 188.568 0 186.472C0 184.265 2.10091 181.038 4.12965 180.127C6.56801 179.034 334.659 179.034 337.097 180.127C339.172 181.058 341.227 184.28 341.227 186.602C341.227 188.381 339.608 191.204 337.73 192.7C336.284 193.852 6.32708 193.926 3.91857 192.775ZM0 165.223C0 159.297 2.14123 140.916 3.68593 133.58C5.52969 124.825 9.32379 112.105 11.899 106.047C12.9801 103.502 16.1476 96.9477 18.9377 91.4808C23.345 82.8444 25.7042 78.9283 31.6012 70.4602C39.0388 59.7798 56.6041 42.0891 68.2976 33.5018C88.0674 18.9833 112.878 7.88104 135.355 3.49456C151.448 0.353959 174.779 -0.886519 188.459 0.6711C236.761 6.17054 277.825 29.3564 307.81 68.0585C321.652 85.926 332.296 109.473 337.553 133.861C339.496 142.874 340.372 150.325 340.641 160.138L340.866 168.323L170.433 168.512L0 168.7V165.223Z" fill="#FFFFFF"/>
</svg>
